<?xml version="1.0" encoding="UTF-8" standalone="no"?>
<svg
   xmlns:dc="http://purl.org/dc/elements/1.1/"
   xmlns:cc="http://creativecommons.org/ns#"
   xmlns:rdf="http://www.w3.org/1999/02/22-rdf-syntax-ns#"
   xmlns:svg="http://www.w3.org/2000/svg"
   xmlns="http://www.w3.org/2000/svg"
   viewBox="0 0 2580.8987 948.75"
   height="948.75"
   width="2580.8987"
   version="1.1"
   id="svg2">
  <metadata
     id="metadata8">
    <rdf:RDF>
      <cc:Work
         rdf:about="">
        <dc:format>image/svg+xml</dc:format>
        <dc:type
           rdf:resource="http://purl.org/dc/dcmitype/StillImage" />
        <dc:title></dc:title>
      </cc:Work>
    </rdf:RDF>
  </metadata>
  <defs
     id="defs6" />
  <g
     transform="translate(1200.5572,443.59023)"
     id="g7309">
    <path
       id="path7294"
       d="m -405.5568,-386.09023 0,-57.5 63.125,0 63.125,0 0,57.5 0,57.5 -63.125,0 -63.125,0 0,-57.5 z"
       style="fill:#ada987" />
    <path
       id="path7288"
       d="m -279.3068,88.28477 0,-416.875 70.8112,0 70.8111,0 -0.6699,40 c -0.3685,22 -0.2268,40 0.3148,40 0.5417,0 3.5354,-5.20313 6.6528,-11.5625 8.3544,-17.04294 17.1952,-29.50345 28.9172,-40.75706 12.0359,-11.55495 26.43,-19.32319 44.4128,-23.96863 14.9209,-3.85449 56.3303,-4.94539 73.6244,-1.93959 67.9376,11.80783 100.9869,58.24147 113.5087,159.47778 2.0393,16.48707 2.2419,31.2849 2.2419,163.75 0,159.30313 0.081,157.24529 -7.6181,193.96769 -15.3199,73.07307 -52.2184,114.12645 -111.1319,123.64557 -13.9217,2.24947 -44.8558,1.974 -58.8851,-0.52437 -14.6769,-2.61369 -28.9199,-7.69336 -41.0804,-14.65101 -17.3397,-9.92105 -37.2771,-31.01615 -50.7541,-53.70135 -2.8547,-4.80509 -5.6887,-8.73653 -6.2979,-8.73653 -0.6365,0 -1.1075,57.14763 -1.1075,134.375 l 0,134.375 -66.875,0 -66.875,0 0,-416.875 z M -2.4705,201.35133 c 32.4838,-4.69447 48.4722,-30.67287 53.1087,-86.29287 2.0054,-24.05658 3.0745,-188.61044 1.4815,-228.02369 -1.8575,-45.956 -4.9864,-63.33888 -14.7746,-82.0828 -11.0606,-21.18019 -28.3478,-30.61734 -54.1846,-29.57959 -10.4958,0.42156 -13.0941,1.00273 -20.2642,4.53261 -22.9305,11.28862 -35.2643,37.98129 -39.6827,85.87978 -1.7886,19.39165 -1.69,244.12956 0.115,260.88847 4.3757,40.63645 18.2155,64.65523 41.6177,72.22763 10.5573,3.41607 20.6499,4.17509 32.5837,2.45046 z m 802.4116,153.68408 c -8.2995,-0.95551 -22.3029,-5.21823 -23.469,-7.14406 -0.2853,-0.47112 0.2958,-2.88872 1.2914,-5.37243 l 1.8102,-4.51585 7.639,3.08555 c 9.5439,3.85495 24.6404,5.12125 33.0348,2.77096 12.8725,-3.60407 19.1957,-15.07953 19.1957,-34.8365 l 0,-10.68292 -3.7755,4.58035 c -12.6209,15.3113 -39.721,15.03025 -53.0572,-0.55024 -7.455,-8.70941 -9.9657,-16.94765 -10.0067,-32.8355 -0.033,-12.47663 0.2788,-14.38669 3.3593,-20.625 5.1819,-10.49384 10.1752,-15.69723 19.4385,-20.25608 7.149,-3.51835 9.6486,-4.10678 17.143,-4.03571 9.8939,0.0939 17.4442,3.18518 23.4299,9.59288 l 3.4687,3.7133 0,-5.75719 0,-5.7572 7.5,0 7.5,0 0,46.74333 c 0,43.72887 -0.1667,47.28323 -2.5857,55.11512 -2.0538,6.64924 -3.9184,9.7299 -9.0625,14.97247 -10.1289,10.3227 -23.5515,14.01702 -42.8539,11.79472 z m 26.6704,-55.63331 c 2.6222,-2.07574 6.3676,-7.02357 8.4567,-11.17163 3.4559,-6.86161 3.75,-8.4753 3.75,-20.5707 0,-11.11589 -0.4192,-13.90849 -2.7389,-18.24335 -3.6321,-6.78771 -10.5335,-12.68653 -16.0546,-13.72229 -19.633,-3.68317 -31.7049,8.24934 -31.7931,31.42626 -0.064,16.75349 5.6619,29.90894 15.112,34.72153 6.6459,3.3845 17.325,2.2647 23.2679,-2.43982 z m -584.7678,14.41289 c -12.4724,-1.93265 -22.4064,-10.39048 -27.6674,-23.55603 -2.2796,-5.70447 -2.7935,-9.47752 -2.8225,-20.72419 -0.031,-12.28651 0.315,-14.49771 3.2584,-20.77501 7.3075,-15.58476 19.8022,-24.11204 35.3827,-24.14775 10.8469,-0.0249 17.0638,2.02927 23.3617,7.71907 l 4.8366,4.36959 0,-25.77045 0,-25.77045 7.5,0 7.5,0 0,63.75 0,63.75 -7.5,0 -7.5,0 0,-7.1598 0,-7.15981 -3.7755,4.58035 c -6.8981,8.3686 -20.1886,12.81365 -32.574,10.89448 z m 23.5178,-14.41289 c 2.6222,-2.07574 6.3676,-7.02357 8.4567,-11.17163 3.4559,-6.86161 3.75,-8.4753 3.75,-20.5707 0,-11.11589 -0.4192,-13.90849 -2.7389,-18.24335 -3.6321,-6.78771 -10.5335,-12.68653 -16.0546,-13.72229 -19.633,-3.68317 -31.7049,8.24934 -31.7931,31.42626 -0.064,16.75349 5.6619,29.90894 15.112,34.72153 6.6459,3.3845 17.325,2.2647 23.2679,-2.43982 z m 84.74,14.34586 c -15.4481,-2.20969 -26.5983,-10.78298 -32.1752,-24.739 -2.2796,-5.70447 -2.7935,-9.47752 -2.8225,-20.72419 -0.031,-12.2341 0.3214,-14.50795 3.2021,-20.625 4.5793,-9.72371 8.8791,-14.30108 17.4635,-18.5908 26.5272,-13.25571 50.013,0.70625 52.0869,30.9648 l 0.6941,10.126 -29.6634,0 -29.6636,0 0.8748,5.3125 c 2.014,12.23147 7.8587,20.66492 17.6378,25.44933 5.8885,2.88096 7.8742,3.23677 14.9119,2.67184 5.0077,-0.40196 10.5204,-1.84012 14.3853,-3.75285 l 6.2662,-3.10115 1.8219,3.52309 c 2.3711,4.58533 2.4586,4.30537 -2.2406,7.16843 -9.2886,5.65906 -21.2559,7.96532 -32.7793,6.317 z m 24.3347,-56.40069 c -0.015,-6.06429 -2.9662,-12.95489 -7.4832,-17.47181 -4.3448,-4.3448 -5.2728,-4.71569 -11.7998,-4.71569 -8.2688,0 -12.6139,1.9424 -17.9563,8.02697 -3.4541,3.93402 -6.4776,11.10574 -6.4967,15.41053 0,1.19074 5.1976,1.5625 21.868,1.5625 21.8539,0 21.875,-0.003 21.868,-2.8125 z m 206.257,56.57499 c -22.6559,-3.89378 -36.2399,-22.89329 -34.7514,-48.6058 0.6933,-11.97507 5.8462,-23.81635 13.1575,-30.23585 12.5547,-11.02314 31.1523,-13.85828 45.9689,-7.0078 18.8398,8.71056 28.2929,27.9814 24.3613,49.66259 -3.4647,19.10646 -15.8407,32.88213 -31.9194,35.52926 -9.4101,1.54924 -11.2176,1.61991 -16.8169,0.6576 z m 18.2157,-12.55645 c 9.9572,-4.82017 14.8666,-15.79193 14.8023,-33.08104 -0.044,-11.6388 -2.6469,-20.3781 -7.7533,-26.02484 -5.6636,-6.26294 -18.7506,-9.02345 -27.3708,-5.7735 -5.6315,2.12317 -11.4527,8.64239 -14.1469,15.84338 -3.0454,8.13931 -3.3456,23.26871 -0.6425,32.37117 2.0555,6.9216 8.0236,14.42365 13.7705,17.30999 5.3381,2.68102 15.0781,2.38658 21.3407,-0.64516 z m 62.6987,12.43086 c -6.4579,-1.01439 -16.0828,-5.20246 -18.4154,-8.01315 -1.1444,-1.37886 -0.7275,-2.66086 1.9608,-6.02995 l 3.4141,-4.27877 5.3442,3.76696 c 13.9115,9.8058 32.0155,2.308 28.0249,-11.60659 -1.5399,-5.36916 -3.7867,-7.70062 -15.1192,-15.6882 -11.863,-8.36159 -18.2347,-15.31716 -19.3173,-21.08762 -2.8186,-15.02449 8.9631,-26.23989 27.5685,-26.24333 6.983,-0.001 9.886,0.62635 14.375,3.10795 6.2449,3.45228 6.5652,4.2328 3.5089,8.54958 -2.0896,2.95126 -2.1728,2.96192 -6.6264,0.84855 -12.3754,-5.8725 -24.3825,-2.6669 -24.3825,6.50953 0,5.09135 2.4693,7.89003 15.8039,17.91255 7.3407,5.51747 13.3745,11.17524 15.5116,14.54519 7.0541,11.12323 5.9983,21.717 -2.9902,30.00235 -7.6174,7.02141 -16.9832,9.53924 -28.6609,7.70495 z m 391.4861,0.0184 c -12.4724,-1.93265 -22.4064,-10.39048 -27.6674,-23.55603 -2.2796,-5.70447 -2.7935,-9.47752 -2.8225,-20.72419 -0.031,-12.28651 0.315,-14.49771 3.2584,-20.77501 7.3075,-15.58476 19.8022,-24.11204 35.3828,-24.14775 10.8468,-0.0249 17.0637,2.02927 23.3616,7.71907 l 4.8366,4.36959 0,-25.77045 0,-25.77045 7.5,0 7.5,0 0,63.75 0,63.75 -7.5,0 -7.5,0 0,-7.1598 0,-7.15981 -3.7755,4.58035 c -6.8981,8.3686 -20.1886,12.81365 -32.574,10.89448 z m 23.5178,-14.41289 c 2.6222,-2.07574 6.3676,-7.02357 8.4567,-11.17163 3.4559,-6.86161 3.75,-8.4753 3.75,-20.5707 0,-11.11589 -0.4192,-13.90849 -2.7389,-18.24335 -3.6321,-6.78771 -10.5335,-12.68653 -16.0546,-13.72229 -19.633,-3.68317 -31.7049,8.24934 -31.7931,31.42627 -0.064,16.75348 5.6619,29.90893 15.112,34.72152 6.6459,3.3845 17.325,2.2647 23.2679,-2.43983 z m 84.0817,14.52011 c -22.6559,-3.89378 -36.2399,-22.89329 -34.7514,-48.6058 0.6933,-11.97507 5.8462,-23.81635 13.1575,-30.23585 12.5547,-11.02314 31.1523,-13.85828 45.9689,-7.0078 18.8398,8.71056 28.2929,27.9814 24.3613,49.66259 -3.4647,19.10646 -15.8407,32.88213 -31.9194,35.52926 -9.4101,1.54924 -11.2176,1.61991 -16.8169,0.6576 z m 18.2157,-12.55645 c 9.9572,-4.82017 14.8666,-15.79193 14.8023,-33.08104 -0.044,-11.6388 -2.6469,-20.3781 -7.7533,-26.02484 -5.6636,-6.26294 -18.7506,-9.02345 -27.3708,-5.7735 -5.6315,2.12317 -11.4527,8.64239 -14.1469,15.84338 -3.0454,8.13931 -3.3456,23.26871 -0.6425,32.37117 2.0555,6.9216 8.0236,14.42365 13.7705,17.30999 5.3381,2.68102 15.0781,2.38658 21.3407,-0.64516 z m -446.3407,9.70575 c -3.2945,-1.84299 -5.9594,-4.69777 -7.8125,-8.3693 -2.6911,-5.33181 -2.8125,-6.90898 -2.8125,-36.55735 l 0,-30.98514 -6.25,0 -6.25,0 0,-4.375 0,-4.375 6.25,0 6.25,0 0,-10.5075 0,-10.5075 5.8476,-1.9925 c 3.2163,-1.09587 6.31,-1.9925 6.875,-1.9925 0.5652,0 1.0274,5.625 1.0274,12.5 l 0,12.5 11.875,0 11.875,0 0,4.375 0,4.375 -11.875,0 -11.875,0 0.012,24.0625 c 0.013,29.32279 1.1769,37.97347 5.6545,41.875 3.519,3.0664 9.4421,3.66165 15.0854,1.51605 3.8517,-1.46441 4.9772,-0.74186 6.1316,3.93634 0.7222,2.92679 0.2756,3.47694 -4.3119,5.3125 -7.5694,3.02867 -19.5221,2.66085 -25.6919,-0.7906 z m 216.25,1.07366 c -7.9464,-3.53179 -13.125,-12.6517 -13.125,-23.11392 0,-8.11708 1.6449,-12.20336 7.2619,-18.03994 6.0341,-6.26994 11.5907,-9.06597 28.9881,-14.5863 15.9513,-5.06148 17.0031,-6.18979 12.5331,-13.44422 -6.2205,-10.09528 -19.1973,-11.80248 -31.5141,-4.14592 l -6.2237,3.8689 -2.356,-2.82453 c -3.2416,-3.88602 -3.0349,-4.90861 1.6317,-8.07636 7.8875,-5.35399 13.6816,-7.07659 24.054,-7.15122 15.6948,-0.113 24.811,4.47251 29.5254,14.85135 1.9852,4.37047 2.2984,8.52642 2.3221,30.8186 0.025,23.47483 0.8759,34.15558 3.1998,40.17061 0.7522,1.94691 -0.056,2.1875 -7.3548,2.1875 l -8.2,0 -1.3018,-4.6875 c -0.7159,-2.57813 -1.3049,-6.03473 -1.3087,-7.68133 -0.013,-2.74817 -0.5514,-2.47893 -6.642,3.2813 -3.6493,3.45132 -8.4026,7.18917 -10.563,8.30633 -4.7341,2.44814 -15.7042,2.58791 -20.927,0.26665 z m 25.125,-13.01934 c 7.7409,-5.61136 12.1211,-14.99819 12.7704,-27.36697 l 0.5409,-10.30683 -6.7182,1.99176 c -19.1635,5.68153 -26.0792,10.33233 -28.7828,19.35632 -1.1123,3.71253 -1.1072,6.02398 0.023,9.79255 3.0485,10.17493 13.0696,13.12832 22.1677,6.53317 z m -514.5,-47.2329 0,-60.76677 21.5625,0.62007 c 23.6732,0.68078 27.8774,1.5403 36.7318,7.50965 11.0026,7.41759 15.5162,22.70623 11.1439,37.74641 -1.6897,5.81225 -3.5575,8.72674 -9.2251,14.39437 -8.2975,8.29748 -16.8647,12.06822 -30.2445,13.31175 l -8.7186,0.81031 0,-5.8045 0,-5.8045 5.3125,-0.008 c 8.4264,-0.0112 14.8956,-2.40704 19.8345,-7.34596 11.1891,-11.18907 9.3544,-32.8516 -3.3719,-39.81093 -3.5997,-1.96854 -8.2877,-3.0339 -15.9375,-3.62191 l -10.8376,-0.83304 0,55.1844 0,55.18441 -8.125,0 -8.125,0 0,-60.76678 z m 422.5,17.64179 0,-43.125 6.875,0 6.875,0 0,5.10624 0,5.10622 5.8054,-5.1101 c 8.145,-7.16947 13.5636,-8.61276 20.0027,-5.32777 8.0748,4.11938 8.726,5.61412 4.7296,10.85366 -2.3632,3.09846 -4.0432,4.2356 -5.4188,3.66807 -1.0967,-0.45238 -4.3735,-1.11353 -7.2819,-1.46922 -6.9119,-0.84531 -11.0236,1.85184 -14.4303,9.46582 -2.339,5.22794 -2.6668,8.84263 -3.1653,34.89458 l -0.5562,29.0625 -6.7176,0 -6.7176,0 0,-43.125 z m -2082.4716,-14.0625 0.028,-34.6875 4.0643,7.5 c 15.8409,29.23156 36.0681,47.14054 66.4678,58.85 l 7.5361,2.9028 -39.0625,0.0611 -39.0625,0.0611 0.028,-34.6875 z m 204.38085,29.3385 c 5.51884,-2.9018 13.95634,-8.0402 18.75,-11.41865 11.61771,-8.1879 30.70277,-27.5442 40.46966,-41.04485 4.35193,-6.01563 8.26889,-10.93602 8.70435,-10.93421 0.43545,10e-4 0.81999,10.26742 0.85451,22.8125 0.0584,21.21253 1.63999,35.09442 4.9842,43.74671 0.79519,2.05734 -1.67267,2.18532 -41.47573,2.151 l -42.32124,-0.0365 10.03425,-5.27601 z m 302.82252,2.16069 c -50.95058,-7.9335 -87.97103,-41.24183 -102.04382,-91.81172 -7.33512,-26.35839 -7.47575,-32.65285 -4.56629,-204.39091 2.48492,-146.67795 2.49764,-174.04464 0.0892,-191.85909 -5.26271,-38.92654 -19.772,-68.86831 -42.52378,-87.75323 -25.27021,-20.97528 -57.69381,-32.70307 -107.56208,-38.90576 -2.0625,-0.25654 60.78539,-0.55071 139.66197,-0.65372 l 143.41198,-0.18729 0.40044,232.8125 c 0.44467,258.53039 -0.18914,239.61187 8.67157,258.8363 8.26383,17.92942 26.06334,28.32659 48.47904,28.31789 31.68156,-0.0125 51.51752,-16.17252 59.85155,-48.7606 4.94733,-19.3452 5.14845,-29.26491 5.14845,-253.92319 l 0,-217.2829 69.375,0 69.375,0 0,308.75 0,308.75 -66.25,0 -66.25,0 0,-48.125 c 0,-27.40432 -0.48059,-48.125 -1.1162,-48.125 -0.61393,0 -2.61416,4.64062 -4.44498,10.3125 -4.84823,15.0198 -17.16442,39.07952 -24.78472,48.41705 -13.33809,16.34381 -29.41572,26.31727 -51.42458,31.90027 -21.95276,5.56878 -51.78264,7.06311 -73.49775,3.68187 z m -335.35677,-95.58923 c -8.4153,-1.68912 -19.1827,-6.22585 -24.7279,-10.41883 -7.8158,-5.9099 -15.0386,-17.49049 -18.531,-29.71157 -2.7342,-9.56803 -2.9839,-12.66813 -2.9075,-36.09209 0.091,-27.8405 1.7513,-37.77279 8.6979,-52.02644 7.6593,-15.71605 25.0315,-29.17006 93.7185,-72.58114 15.125,-9.55918 29.13761,-18.46346 31.13914,-19.78726 l 3.63912,-2.40691 -0.76921,66.21338 c -0.42307,36.41735 -1.41828,72.11962 -2.21156,79.33837 -4.97805,45.2991 -21.2208,70.2617 -49.97338,76.80134 -9.03441,2.05483 -29.39261,2.4137 -38.07411,0.67115 z m 1327.283,-50.0945 c -6.4832,-1.19924 -11.5877,-3.79519 -17.2661,-8.78085 l -4.3919,-3.85611 0,5.75448 0,5.75449 -7.5,0 -7.5,0 0,-63.75 0,-63.75 7.5,0 7.5,0 0,27.7848 0,27.78481 3.7755,-4.58035 c 11.7681,-14.27672 36.7865,-15.60792 51.1208,-2.7201 14.3822,12.93083 17.6083,38.14143 7.5311,58.85254 -7.6849,15.79421 -24.2914,24.55431 -40.7694,21.50629 z m 16.4201,-12.90942 c 12.799,-7.50071 18.1763,-33.39617 10.5285,-50.703 -4.6601,-10.54582 -10.9365,-15.01557 -21.0847,-15.01557 -11.4422,0 -18.6489,5.07925 -23.943,16.875 -3.6784,8.19569 -4.0663,25.86825 -0.756,34.44394 2.547,6.59853 10.148,14.55346 15.4092,16.12681 7.02,2.0993 14.4148,1.45575 19.846,-1.72718 z m 81.3302,12.86962 c -15.4481,-2.20969 -26.5983,-10.78298 -32.1752,-24.739 -2.2796,-5.70447 -2.7935,-9.47752 -2.8225,-20.72419 -0.031,-12.2341 0.3214,-14.50795 3.2021,-20.625 4.5793,-9.72371 8.8791,-14.30107 17.4635,-18.5908 26.5272,-13.25571 50.013,0.70625 52.0869,30.9648 l 0.6941,10.126 -29.6634,0 -29.6636,0 0.8748,5.3125 c 2.014,12.23148 7.8587,20.66493 17.6378,25.44933 5.8885,2.88096 7.8742,3.23677 14.9119,2.67185 5.0077,-0.40197 10.5204,-1.84013 14.3853,-3.75285 l 6.2662,-3.10115 1.8219,3.52308 c 2.3711,4.58533 2.4586,4.30537 -2.2406,7.16843 -9.2886,5.65906 -21.2559,7.96532 -32.7793,6.317 z m 24.3347,-56.40069 c -0.015,-6.06429 -2.9662,-12.95489 -7.4832,-17.47181 -4.3448,-4.3448 -5.2728,-4.71569 -11.7998,-4.71569 -8.2688,0 -12.6139,1.9424 -17.9563,8.02697 -3.4541,3.93402 -6.4776,11.10574 -6.4967,15.41053 0,1.19074 5.1976,1.5625 21.868,1.5625 21.8539,0 21.875,-0.003 21.868,-2.8125 z m 122.507,56.57499 c -22.6559,-3.89378 -36.2399,-22.89329 -34.7514,-48.6058 0.6933,-11.97507 5.8462,-23.81635 13.1575,-30.23585 12.5547,-11.02314 31.1523,-13.85828 45.9689,-7.0078 18.8398,8.71056 28.2929,27.9814 24.3613,49.66259 -3.4647,19.10646 -15.8407,32.88213 -31.9194,35.52926 -9.4101,1.54924 -11.2176,1.61991 -16.8169,0.6576 z m 18.2157,-12.55645 c 9.9572,-4.82017 14.8666,-15.79193 14.8023,-33.08104 -0.044,-11.6388 -2.6469,-20.3781 -7.7533,-26.02484 -5.6636,-6.26294 -18.7506,-9.02345 -27.3708,-5.7735 -5.6315,2.12317 -11.4527,8.64239 -14.1469,15.84338 -3.0454,8.13931 -3.3456,23.26871 -0.6425,32.37117 2.0555,6.9216 8.0236,14.42365 13.7705,17.30999 5.3381,2.68102 15.0781,2.38658 21.3407,-0.64516 z m 323.6926,12.38215 c -15.4481,-2.20969 -26.5983,-10.78298 -32.1752,-24.739 -2.2796,-5.70447 -2.7935,-9.47752 -2.8225,-20.72419 -0.031,-12.2341 0.3214,-14.50795 3.2021,-20.625 4.5793,-9.72371 8.879,-14.30107 17.4636,-18.5908 26.5271,-13.25571 50.013,0.70625 52.0868,30.9648 l 0.6942,10.126 -29.6635,0 -29.6636,0 0.8748,5.3125 c 2.014,12.23148 7.8588,20.66493 17.6378,25.44933 5.8885,2.88096 7.8742,3.23677 14.9119,2.67185 5.0077,-0.40197 10.5204,-1.84013 14.3853,-3.75285 l 6.2662,-3.10115 1.8219,3.52308 c 2.3711,4.58533 2.4586,4.30537 -2.2406,7.16843 -9.2886,5.65906 -21.2559,7.96532 -32.7793,6.317 z m 24.3347,-56.40069 c -0.015,-6.06429 -2.9662,-12.95489 -7.4832,-17.47181 -4.3448,-4.3448 -5.2728,-4.71569 -11.7998,-4.71569 -8.2688,0 -12.6139,1.9424 -17.9563,8.02697 -3.4541,3.93402 -6.4776,11.10574 -6.4967,15.41053 0,1.19074 5.1976,1.5625 21.868,1.5625 21.8539,0 21.875,-0.003 21.868,-2.8125 z m 168.132,56.481 c -18.3694,-1.83949 -31.5209,-12.89991 -36.2905,-30.5204 -6.4274,-23.7447 4.4729,-47.66648 25.4135,-55.77261 10.1317,-3.922 27.2326,-4.03116 35.5645,-0.22702 3.2656,1.49103 5.9375,3.05177 5.9375,3.46832 0,1.28755 -3.7747,8.13321 -4.4847,8.13321 -0.3688,0 -3.4802,-0.91898 -6.914,-2.04216 -12.3972,-4.05489 -28.2372,0.25355 -34.7959,9.4644 -6.3523,8.92092 -8.1083,23.55306 -4.3468,36.2196 5.3973,18.17436 24.8327,26.06802 43.6687,17.73596 l 5.6296,-2.49029 1.8716,3.61918 c 1.0292,1.99054 1.8715,3.95946 1.8715,4.37538 0,1.48781 -13.7537,7.01817 -19.6331,7.89443 -3.2955,0.49118 -9.3669,0.55508 -13.4919,0.142 z m -456.25,-1.68305 c -7.9464,-3.53179 -13.125,-12.6517 -13.125,-23.11392 0,-8.11708 1.6449,-12.20336 7.2619,-18.03994 6.0341,-6.26994 11.5907,-9.06597 28.9881,-14.5863 15.9513,-5.06148 17.0031,-6.18979 12.5331,-13.44422 -6.2205,-10.09528 -19.1973,-11.80248 -31.5141,-4.14592 l -6.2238,3.8689 -2.3559,-2.82453 c -3.2416,-3.88602 -3.0349,-4.90861 1.6317,-8.07636 7.8875,-5.35399 13.6816,-7.07659 24.054,-7.15122 15.6948,-0.113 24.811,4.47251 29.5254,14.85135 1.9852,4.37047 2.2984,8.52642 2.3221,30.8186 0.025,23.47483 0.8759,34.15559 3.1998,40.17061 0.7522,1.94691 -0.056,2.1875 -7.3548,2.1875 l -8.2,0 -1.3017,-4.6875 c -0.716,-2.57813 -1.305,-6.03472 -1.3088,-7.68132 -0.013,-2.74818 -0.5514,-2.47894 -6.642,3.2813 -3.6492,3.45131 -8.4026,7.18916 -10.563,8.30632 -4.7341,2.44814 -15.7042,2.58791 -20.927,0.26665 z m 25.125,-13.01934 c 7.7409,-5.61136 12.1211,-14.99819 12.7704,-27.36697 l 0.5409,-10.30683 -6.7182,1.99176 c -19.1635,5.68153 -26.0792,10.33233 -28.7828,19.35632 -1.1123,3.71253 -1.1072,6.02398 0.022,9.79255 3.0485,10.17493 13.0696,13.12832 22.1677,6.53317 z m 489.875,13.01934 c -7.9464,-3.53179 -13.125,-12.6517 -13.125,-23.11392 0,-8.11708 1.6449,-12.20336 7.2619,-18.03994 6.0341,-6.26994 11.5907,-9.06597 28.9881,-14.5863 15.9513,-5.06148 17.0031,-6.18979 12.5331,-13.44422 -6.2205,-10.09528 -19.1973,-11.80248 -31.5141,-4.14592 l -6.2237,3.8689 -2.356,-2.82453 c -3.2416,-3.88602 -3.0349,-4.90861 1.6317,-8.07636 7.8875,-5.35399 13.6816,-7.07659 24.054,-7.15122 15.6948,-0.113 24.811,4.47251 29.5254,14.85135 1.9852,4.37047 2.2984,8.52642 2.3221,30.8186 0.025,23.47483 0.8759,34.15559 3.1998,40.17061 0.7522,1.94691 -0.056,2.1875 -7.3548,2.1875 l -8.2,0 -1.3018,-4.6875 c -0.7159,-2.57813 -1.3049,-6.03472 -1.3087,-7.68132 -0.013,-2.74818 -0.5514,-2.47894 -6.642,3.2813 -3.6493,3.45131 -8.4026,7.18916 -10.563,8.30632 -4.7341,2.44814 -15.7042,2.58791 -20.927,0.26665 z m 25.125,-13.01934 c 7.7409,-5.61136 12.1211,-14.99819 12.7704,-27.36697 l 0.5409,-10.30683 -6.7182,1.99176 c -19.1635,5.68153 -26.0792,10.33233 -28.7828,19.35632 -1.1123,3.71253 -1.1072,6.02398 0.023,9.79255 3.0485,10.17493 13.0696,13.12832 22.1677,6.53317 z m 162.375,13.01934 c -7.9464,-3.53179 -13.125,-12.6517 -13.125,-23.11392 0,-8.11708 1.6449,-12.20336 7.2619,-18.03994 6.0341,-6.26994 11.5907,-9.06597 28.9881,-14.5863 15.9513,-5.06148 17.0031,-6.18979 12.5331,-13.44422 -6.2205,-10.09528 -19.1973,-11.80248 -31.5141,-4.14592 l -6.2237,3.8689 -2.356,-2.82453 c -3.2415,-3.88602 -3.0349,-4.90861 1.6317,-8.07636 7.8875,-5.35399 13.6816,-7.07659 24.054,-7.15122 15.6948,-0.113 24.811,4.47251 29.5254,14.85135 1.9852,4.37047 2.2984,8.52642 2.3221,30.8186 0.025,23.47483 0.8759,34.15559 3.1998,40.17061 0.7522,1.94691 -0.056,2.1875 -7.3548,2.1875 l -8.2,0 -1.3017,-4.6875 c -0.716,-2.57813 -1.305,-6.03472 -1.3088,-7.68132 -0.013,-2.74818 -0.5514,-2.47894 -6.642,3.2813 -3.6492,3.45131 -8.4026,7.18916 -10.563,8.30632 -4.7341,2.44814 -15.7042,2.58791 -20.927,0.26665 z m 25.125,-13.01934 c 7.7409,-5.61136 12.1211,-14.99819 12.7704,-27.36697 l 0.5408,-10.30683 -6.7181,1.99176 c -19.1635,5.68153 -26.0792,10.33233 -28.7828,19.35632 -1.1123,3.71253 -1.1072,6.02398 0.023,9.79255 3.0485,10.17493 13.0696,13.12832 22.1677,6.53317 z m -1130.75,-47.09111 0,-60.625 8.125,0 8.125,0 0,60.625 0,60.625 -8.125,0 -8.125,0 0,-60.625 z m 236.25,17.5 0,-43.125 6.875,0 6.875,0 0,5.10624 0,5.10622 5.8054,-5.1101 c 8.145,-7.16947 13.5636,-8.61276 20.0027,-5.32777 8.0748,4.11938 8.726,5.61412 4.7296,10.85366 -2.3632,3.09846 -4.0432,4.2356 -5.4188,3.66808 -1.0967,-0.45239 -4.3735,-1.11354 -7.2819,-1.46923 -6.9119,-0.84531 -11.0236,1.85184 -14.4303,9.46582 -2.339,5.22794 -2.6668,8.84263 -3.1653,34.89458 l -0.5562,29.0625 -6.7176,0 -6.7176,0 0,-43.125 z m 246.25,0 0,-43.125 6.875,0 6.875,0 0,5 c 0,2.75 0.3058,5 0.6795,5 0.3738,0 2.1994,-1.4092 4.0569,-3.13155 12.526,-11.61477 35.6322,-11.61344 47.2485,0.002 l 3.2831,3.28312 4.5535,-3.14376 c 8.9709,-6.19355 16.4981,-8.74255 25.8035,-8.73807 13.348,0.006 20.4596,4.32428 25.5289,15.5 2.3495,5.17976 2.5432,8.12572 2.5686,39.04002 l 0.028,33.43774 -6.7353,0 -6.7352,0 -0.5135,-30.9375 c -0.4804,-28.948 -0.6911,-31.27747 -3.277,-36.22424 -3.4373,-6.57556 -8.6958,-9.43096 -17.2266,-9.3543 -10.1317,0.091 -17.374,5.03699 -20.3393,13.89007 -0.9022,2.69383 -1.4231,14.93233 -1.4231,33.4375 l 0,29.18847 -7.422,0 -7.422,0 -0.3905,-31.5625 c -0.3786,-30.60315 -0.4796,-31.7059 -3.3236,-36.2803 -3.6948,-5.94265 -8.9557,-8.69566 -16.6169,-8.69566 -8.7014,0 -14.7433,3.5788 -18.5599,10.99355 -3.0491,5.92391 -3.153,6.9622 -3.5826,35.82282 l -0.4425,29.72209 -6.745,0 -6.745,0 0,-43.125 z m 243.75,0 0,-43.125 6.875,0 6.875,0 0,5.10624 0,5.10622 5.8054,-5.1101 c 8.145,-7.16947 13.5636,-8.61276 20.0027,-5.32777 8.0748,4.11938 8.726,5.61412 4.7296,10.85366 -2.3632,3.09846 -4.0432,4.2356 -5.4188,3.66808 -1.0967,-0.45239 -4.3735,-1.11354 -7.2819,-1.46923 -6.9119,-0.84531 -11.0236,1.85184 -14.4303,9.46582 -2.339,5.22794 -2.6668,8.84263 -3.1653,34.89458 l -0.5562,29.0625 -6.7176,0 -6.7176,0 0,-43.125 z m 60,0 0,-43.125 6.875,0 6.875,0 0,43.125 0,43.125 -6.875,0 -6.875,0 0,-43.125 z m 211.25,0 0,-43.125 6.875,0 6.875,0 0,5 c 0,5.5298 1.045,6.1796 4.2474,2.64105 1.1741,-1.29743 5.6207,-3.94439 9.8812,-5.88212 14.0778,-6.40273 30.7563,-4.40595 39.2493,4.69898 6.5852,7.05987 7.1499,10.48813 7.6331,46.35459 l 0.4506,33.4375 -7.5266,0 -7.5265,0 -0.3918,-30.9375 c -0.3546,-28.00379 -0.6288,-31.40399 -2.8917,-35.85684 -3.4646,-6.81748 -7.9841,-9.75964 -16.0149,-10.42561 -13.192,-1.09398 -23.3849,6.66803 -25.8541,19.68814 -0.6908,3.64267 -1.256,18.07751 -1.256,32.07742 l 0,25.45439 -6.875,0 -6.875,0 0,-43.125 z m -2416.25,-147.83864 0,-86.53636 61.0628,0 61.0627,0 0.7376,-16.5625 c 1.1203,-25.15664 5.7142,-40.20474 15.6216,-51.17102 6.1313,-6.78662 11.9592,-10.32422 23.6796,-14.37371 8.8643,-3.06268 11.745,-3.40102 33.0508,-3.88188 51.24169,-1.1565 65.52821,7.99965 69.62556,44.62261 2.35915,21.08651 -2.69625,36.69446 -16.56246,51.13469 -14.5742,15.17751 -28.5769,22.90706 -76.3047,42.12054 -39.6669,15.96846 -53.4562,21.95722 -72.3071,31.40345 -47.0478,23.57567 -74.8325,47.20302 -93.849,79.80668 l -5.8174,9.97386 0,-86.53636 z m 2205.5681,82.89545 c -6.0959,-6.09586 -2.0003,-15.68181 6.7,-15.68181 5.3363,0 8.9819,3.80512 8.9819,9.375 0,8.75475 -9.4381,12.55051 -15.6819,6.30681 z M 593.8515,-32.50204 c -15.448,-2.20969 -26.5983,-10.78298 -32.1752,-24.739 -2.2796,-5.70447 -2.7935,-9.47752 -2.8225,-20.72419 -0.031,-12.2341 0.3214,-14.50795 3.2022,-20.625 4.5792,-9.72371 8.879,-14.30107 17.4635,-18.5908 26.5271,-13.25571 50.013,0.70625 52.0868,30.9648 l 0.6942,10.126 -29.6635,0 -29.6635,0 0.8747,5.3125 c 2.014,12.23148 7.8588,20.66493 17.6378,25.44933 5.8885,2.88096 7.8742,3.23677 14.912,2.67184 5.0076,-0.40196 10.5203,-1.84012 14.3852,-3.75284 l 6.2663,-3.10116 1.8218,3.52309 c 2.3712,4.58533 2.4586,4.30537 -2.2406,7.16843 -9.2886,5.65906 -21.2559,7.96532 -32.7792,6.317 z m 24.3347,-56.40069 c -0.015,-6.06429 -2.9662,-12.95489 -7.4832,-17.47181 -4.3448,-4.3448 -5.2728,-4.71569 -11.7998,-4.71569 -8.2688,0 -12.6139,1.9424 -17.9563,8.02697 -3.4541,3.93402 -6.4776,11.10574 -6.4967,15.41053 0,1.19074 5.1976,1.5625 21.868,1.5625 21.8539,0 21.875,-0.002 21.868,-2.8125 z m 105.9214,56.4494 c -6.4579,-1.01439 -16.0828,-5.20246 -18.4154,-8.01315 -1.1444,-1.37886 -0.7275,-2.66086 1.9608,-6.02995 l 3.4141,-4.27878 5.3442,3.76697 c 13.9115,9.8058 32.0155,2.308 28.0249,-11.60659 -1.5399,-5.36916 -3.7867,-7.70063 -15.1192,-15.6882 -11.863,-8.36159 -18.2347,-15.31716 -19.3173,-21.08763 -2.8186,-15.02448 8.9631,-26.23988 27.5685,-26.24332 6.983,-0.001 9.886,0.62635 14.375,3.10795 6.2449,3.45227 6.5653,4.2328 3.5089,8.54957 -2.0896,2.95127 -2.1728,2.96193 -6.6264,0.84855 -12.3754,-5.8725 -24.3825,-2.6669 -24.3825,6.50954 0,5.09135 2.4693,7.89003 15.8039,17.91255 7.3407,5.51746 13.3745,11.17524 15.5116,14.54519 7.0541,11.12322 5.9983,21.717 -2.9902,30.00235 -7.6174,7.02141 -16.9832,9.53924 -28.6609,7.70495 z m -479.0394,-1.57173 c -12.0472,-3.96353 -19.0598,-9.98981 -24.2218,-20.81517 l -3.2782,-6.875 -0.3823,-46.5625 -0.3822,-46.5625 7.447,0 7.4471,0 0.5481,42.8125 c 0.5943,46.40189 1.1189,50.38506 7.7893,59.1304 10.0669,13.19826 33.8137,13.88678 45.4009,1.31633 8.5298,-9.25388 9.0071,-12.48532 9.0071,-60.9861 l 0,-42.27313 7.5,0 7.5,0 0,42.99332 c 0,51.01019 -0.5904,54.48039 -11.2538,66.14779 -9.117,9.97543 -15.7532,12.52535 -33.7462,12.96656 -9.423,0.23108 -16.0974,-0.21417 -19.375,-1.2925 z m 591.25,-1.15338 c -3.2945,-1.84299 -5.9594,-4.69777 -7.8125,-8.3693 -2.6911,-5.33182 -2.8125,-6.90898 -2.8125,-36.55735 l 0,-30.98514 -6.25,0 -6.25,0 0,-4.375 0,-4.375 6.25,0 6.25,0 0,-10.5075 0,-10.5075 5.8476,-1.9925 c 3.2163,-1.09588 6.31,-1.9925 6.875,-1.9925 0.5652,0 1.0274,5.625 1.0274,12.5 l 0,12.5 11.875,0 11.875,0 0,4.375 0,4.375 -11.875,0 -11.875,0 0.012,24.0625 c 0.013,29.32279 1.1769,37.97347 5.6545,41.875 3.519,3.0664 9.4421,3.66165 15.0854,1.51605 3.8517,-1.46441 4.9772,-0.74186 6.1316,3.93634 0.7222,2.92679 0.2756,3.47694 -4.3119,5.3125 -7.5694,3.02867 -19.5221,2.66085 -25.6919,-0.7906 z m 52.5,1.07366 c -7.9464,-3.53179 -13.125,-12.6517 -13.125,-23.11392 0,-8.11708 1.6449,-12.20335 7.2619,-18.03994 6.0341,-6.26994 11.5907,-9.06597 28.9881,-14.5863 15.9513,-5.06148 17.0031,-6.18979 12.5331,-13.44422 -6.2205,-10.09528 -19.1973,-11.80248 -31.5141,-4.14592 l -6.2237,3.8689 -2.356,-2.82452 c -3.2416,-3.88603 -3.0349,-4.90862 1.6317,-8.07637 7.8875,-5.35398 13.6816,-7.07658 24.054,-7.15122 15.6948,-0.113 24.811,4.47251 29.5254,14.85135 1.9852,4.37047 2.2984,8.52642 2.3221,30.8186 0.025,23.47484 0.8759,34.15559 3.1998,40.17061 0.7522,1.94691 -0.056,2.1875 -7.3548,2.1875 l -8.2,0 -1.3018,-4.6875 c -0.7159,-2.57813 -1.3049,-6.03472 -1.3087,-7.68133 -0.013,-2.74817 -0.5514,-2.47893 -6.642,3.2813 -3.6493,3.45132 -8.4026,7.18917 -10.563,8.30633 -4.7341,2.44814 -15.7042,2.58791 -20.927,0.26665 z m 25.125,-13.01934 c 7.7409,-5.61136 12.1211,-14.99819 12.7704,-27.36697 l 0.5409,-10.30683 -6.7182,1.99176 c -19.1635,5.68153 -26.0792,10.33233 -28.7828,19.35632 -1.1123,3.71254 -1.1072,6.02398 0.023,9.79255 3.0485,10.17494 13.0696,13.12832 22.1677,6.53317 z m 162.375,13.01934 c -7.9464,-3.53179 -13.125,-12.6517 -13.125,-23.11392 0,-8.11708 1.6449,-12.20335 7.2619,-18.03994 6.0341,-6.26994 11.5907,-9.06597 28.9881,-14.5863 15.9513,-5.06148 17.0031,-6.18979 12.5331,-13.44422 -6.2205,-10.09528 -19.1973,-11.80248 -31.5141,-4.14592 l -6.2237,3.8689 -2.356,-2.82452 c -3.2416,-3.88603 -3.0349,-4.90862 1.6317,-8.07637 7.8875,-5.35398 13.6816,-7.07658 24.054,-7.15122 15.6948,-0.113 24.811,4.47251 29.5254,14.85135 1.9852,4.37047 2.2984,8.52642 2.3221,30.8186 0.025,23.47484 0.8759,34.15559 3.1998,40.17061 0.7522,1.94691 -0.056,2.1875 -7.3548,2.1875 l -8.2,0 -1.3018,-4.6875 c -0.7159,-2.57813 -1.3049,-6.03472 -1.3087,-7.68133 -0.013,-2.74817 -0.5514,-2.47893 -6.642,3.2813 -3.6493,3.45132 -8.4026,7.18917 -10.563,8.30633 -4.7341,2.44814 -15.7042,2.58791 -20.927,0.26665 z m 25.125,-13.01934 c 7.7409,-5.61136 12.1211,-14.99819 12.7704,-27.36697 l 0.5409,-10.30683 -6.7182,1.99176 c -19.1635,5.68153 -26.0792,10.33233 -28.7828,19.35632 -1.1123,3.71254 -1.1072,6.02398 0.023,9.79255 3.0485,10.17494 13.0696,13.12832 22.1677,6.53317 z m -764.5,-29.59111 0,-43.125 6.875,0 6.875,0 0,5 c 0,5.5298 1.045,6.1796 4.2474,2.64105 1.1741,-1.29742 5.6207,-3.94439 9.8812,-5.88212 14.0778,-6.40273 30.7563,-4.40595 39.2493,4.69898 6.5852,7.05987 7.1499,10.48813 7.6331,46.35459 l 0.4506,33.4375 -7.5266,0 -7.5265,0 -0.3917,-30.9375 c -0.3547,-28.00379 -0.6289,-31.40399 -2.8918,-35.85684 -3.4646,-6.81748 -7.9841,-9.75963 -16.0149,-10.42561 -13.192,-1.09397 -23.3848,6.66803 -25.8541,19.68814 -0.6907,3.64267 -1.256,18.07751 -1.256,32.07742 l 0,25.45439 -6.875,0 -6.875,0 0,-43.125 z m 101.25,0 0,-43.125 6.875,0 6.875,0 0,43.125 0,43.125 -6.875,0 -6.875,0 0,-43.125 z m 47.0125,1.97225 c -9.5494,-22.65944 -17.2858,-41.65421 -17.1919,-42.21061 0.2523,-1.49656 12.881,-4.44051 14.0158,-3.2673 1.3582,1.40415 10.1126,23.52325 18.703,47.25566 3.9817,11 7.6538,19.88974 8.1603,19.75499 0.5065,-0.13476 3.8537,-8.29101 7.438,-18.125 3.5845,-9.834 9.4927,-25.11013 13.1292,-33.94695 l 6.612,-16.06698 5.0029,0.8 c 2.7516,0.44 5.6725,1.20139 6.4908,1.69196 1.0438,0.62563 -4.022,13.39592 -16.9645,42.76698 l -18.4526,41.875 -4.7902,0.33561 -4.7903,0.33563 -17.3625,-41.19899 z m 167.9875,-1.97225 0,-43.125 6.875,0 6.875,0 0,5.10624 0,5.10622 5.8054,-5.1101 c 8.145,-7.16947 13.5636,-8.61276 20.0027,-5.32777 8.0748,4.11938 8.726,5.61412 4.7296,10.85366 -2.3632,3.09846 -4.0432,4.2356 -5.4188,3.66807 -1.0967,-0.45238 -4.3735,-1.11353 -7.2819,-1.46922 -6.9119,-0.84531 -11.0236,1.85184 -14.4303,9.46582 -2.339,5.22794 -2.6668,8.84263 -3.1653,34.89458 l -0.5562,29.0625 -6.7176,0 -6.7176,0 0,-43.125 z m 127.5,0 0,-43.125 6.875,0 6.875,0 0,43.125 0,43.125 -6.875,0 -6.875,0 0,-43.125 z m 187.5,0 0,-43.125 6.875,0 6.875,0 0,5.10624 0,5.10622 5.8054,-5.1101 c 8.145,-7.16947 13.5636,-8.61276 20.0027,-5.32777 8.0748,4.11938 8.726,5.61412 4.7296,10.85366 -2.3632,3.09846 -4.0432,4.2356 -5.4188,3.66807 -1.0967,-0.45238 -4.3735,-1.11353 -7.2819,-1.46922 -6.9119,-0.84531 -11.0236,1.85184 -14.4303,9.46582 -2.339,5.22794 -2.6668,8.84263 -3.1653,34.89458 l -0.5562,29.0625 -6.7176,0 -6.7176,0 0,-43.125 z m 60,0 0,-43.125 6.875,0 6.875,0 0,43.125 0,43.125 -6.875,0 -6.875,0 0,-43.125 z m -589.4319,-64.94319 c -6.0958,-6.09586 -2.0003,-15.68181 6.7,-15.68181 5.3363,0 8.9819,3.80513 8.9819,9.375 0,8.75475 -9.4381,12.55051 -15.6819,6.30681 z m 342.5,0 c -6.0959,-6.09586 -2.0003,-15.68181 6.7,-15.68181 5.3363,0 8.9819,3.80513 8.9819,9.375 0,8.75475 -9.4381,12.55051 -15.6819,6.30681 z m 247.5,0 c -6.0959,-6.09586 -2.0003,-15.68181 6.7,-15.68181 5.3363,0 8.9819,3.80513 8.9819,9.375 0,8.75475 -9.4381,12.55051 -15.6819,6.30681 z m -694.6537,-64.54491 c -6.4579,-1.01439 -16.0828,-5.20246 -18.4154,-8.01315 -1.1444,-1.37886 -0.7275,-2.66086 1.9608,-6.02995 l 3.4141,-4.27878 5.3442,3.76697 c 13.9115,9.8058 32.0155,2.308 28.0249,-11.60659 -1.5399,-5.36916 -3.7867,-7.70063 -15.1192,-15.6882 -11.863,-8.36159 -18.2347,-15.31716 -19.3173,-21.08763 -2.8186,-15.02448 8.9631,-26.23988 27.5685,-26.24332 6.983,-10e-4 9.886,0.62635 14.375,3.10795 6.2449,3.45227 6.5653,4.2328 3.5089,8.54957 -2.0896,2.95127 -2.1728,2.96193 -6.6264,0.84855 -12.3754,-5.8725 -24.3825,-2.6669 -24.3825,6.50954 0,5.09135 2.4693,7.89003 15.8039,17.91255 7.3407,5.51746 13.3745,11.17524 15.5116,14.54519 7.0541,11.12322 5.9983,21.717 -2.9902,30.00235 -7.6174,7.02141 -16.9832,9.53924 -28.6609,7.70495 z m 85.3356,0.12559 c -22.6559,-3.89378 -36.2399,-22.89329 -34.7514,-48.6058 0.6933,-11.97506 5.8462,-23.81635 13.1575,-30.23585 12.5547,-11.02314 31.1523,-13.85828 45.9689,-7.0078 18.8398,8.71056 28.2929,27.9814 24.3613,49.66259 -3.4647,19.10646 -15.8407,32.88213 -31.9194,35.52926 -9.4101,1.54924 -11.2176,1.61991 -16.8169,0.6576 z m 18.2157,-12.55645 c 9.9572,-4.82017 14.8666,-15.79193 14.8023,-33.08104 -0.044,-11.6388 -2.6469,-20.3781 -7.7533,-26.02484 -5.6636,-6.26294 -18.7506,-9.02345 -27.3708,-5.7735 -5.6315,2.12317 -11.4527,8.64239 -14.1469,15.84338 -3.0454,8.13931 -3.3456,23.26871 -0.6425,32.37117 2.0555,6.9216 8.0236,14.42365 13.7705,17.30999 5.3381,2.68102 15.0781,2.38657 21.3407,-0.64516 z m 84.9093,12.46246 c -18.3694,-1.83949 -31.5209,-12.89991 -36.2905,-30.5204 -6.4274,-23.7447 4.4729,-47.66648 25.4135,-55.77261 10.1317,-3.922 27.2326,-4.03116 35.5645,-0.22701 3.2656,1.49102 5.9375,3.05176 5.9375,3.46831 0,1.28755 -3.7747,8.13321 -4.4847,8.13321 -0.3688,0 -3.4802,-0.91898 -6.914,-2.04216 -12.3972,-4.05489 -28.2372,0.25355 -34.7959,9.4644 -6.3523,8.92092 -8.1083,23.55306 -4.3468,36.2196 5.3973,18.17436 24.8327,26.06802 43.6687,17.73596 l 5.6296,-2.49029 1.8716,3.61918 c 1.0292,1.99053 1.8715,3.95946 1.8715,4.37538 0,1.4878 -13.7537,7.01817 -19.6331,7.89443 -3.2955,0.49117 -9.3669,0.55507 -13.4919,0.142 z m 211.25,0 c -18.3694,-1.83949 -31.5209,-12.89991 -36.2905,-30.5204 -6.4274,-23.7447 4.4729,-47.66648 25.4135,-55.77261 10.1317,-3.922 27.2326,-4.03116 35.5645,-0.22701 3.2656,1.49102 5.9375,3.05176 5.9375,3.46831 0,1.28755 -3.7747,8.13321 -4.4847,8.13321 -0.3688,0 -3.4802,-0.91898 -6.914,-2.04216 -12.3972,-4.05489 -28.2372,0.25355 -34.7959,9.4644 -6.3523,8.92092 -8.1083,23.55306 -4.3468,36.2196 5.3973,18.17436 24.8327,26.06802 43.6687,17.73596 l 5.6296,-2.49029 1.8716,3.61918 c 1.0292,1.99053 1.8715,3.95946 1.8715,4.37538 0,1.4878 -13.7537,7.01817 -19.6331,7.89443 -3.2955,0.49117 -9.3669,0.55507 -13.4919,0.142 z m 121.875,0.094 c -22.6559,-3.89378 -36.2399,-22.89329 -34.7514,-48.6058 0.6933,-11.97506 5.8462,-23.81635 13.1575,-30.23585 12.5547,-11.02314 31.1523,-13.85828 45.9689,-7.0078 18.8398,8.71056 28.2929,27.9814 24.3613,49.66259 -3.4647,19.10646 -15.8407,32.88213 -31.9194,35.52926 -9.4101,1.54924 -11.2176,1.61991 -16.8169,0.6576 z m 18.2157,-12.55645 c 9.9572,-4.82016 14.8666,-15.79192 14.8023,-33.08104 -0.044,-11.6388 -2.6469,-20.3781 -7.7533,-26.02484 -5.6636,-6.26293 -18.7506,-9.02345 -27.3708,-5.7735 -5.6315,2.12317 -11.4527,8.64239 -14.1469,15.84338 -3.0454,8.13931 -3.3456,23.26871 -0.6425,32.37117 2.0555,6.9216 8.0236,14.42365 13.7705,17.30999 5.3381,2.68103 15.0781,2.38658 21.3407,-0.64516 z m -251.3407,10.7794 c -7.9464,-3.53179 -13.125,-12.6517 -13.125,-23.11392 0,-8.11708 1.6449,-12.20335 7.2619,-18.03994 6.0341,-6.26994 11.5907,-9.06597 28.9881,-14.5863 15.9513,-5.06148 17.0031,-6.18979 12.5331,-13.44422 -6.2205,-10.09528 -19.1973,-11.80248 -31.5141,-4.14592 l -6.2238,3.8689 -2.3559,-2.82453 c -3.2416,-3.88602 -3.0349,-4.90861 1.6317,-8.07636 7.8875,-5.35399 13.6816,-7.07659 24.054,-7.15122 15.6948,-0.113 24.811,4.47251 29.5254,14.85135 1.9852,4.37047 2.2984,8.52642 2.3221,30.8186 0.025,23.47483 0.8759,34.15558 3.1998,40.17061 0.7522,1.94691 -0.056,2.1875 -7.3548,2.1875 l -8.2,0 -1.3017,-4.6875 c -0.716,-2.57813 -1.305,-6.03473 -1.3088,-7.68133 -0.013,-2.74817 -0.5514,-2.47893 -6.642,3.2813 -3.6492,3.45132 -8.4026,7.18917 -10.563,8.30633 -4.7341,2.44814 -15.7042,2.58791 -20.927,0.26665 z m 25.125,-13.01934 c 7.7409,-5.61136 12.1211,-14.99818 12.7704,-27.36697 l 0.5409,-10.30683 -6.7182,1.99177 c -19.1635,5.68152 -26.0792,10.33232 -28.7828,19.35631 -1.1123,3.71254 -1.1072,6.02399 0.022,9.79255 3.0485,10.17494 13.0696,13.12832 22.1677,6.53317 z m -444.1831,12.03514 c 0.3482,-0.89444 11.4763,-28.23071 24.729,-60.74729 l 24.0958,-59.12102 6.2018,0.37102 6.2017,0.37104 22.3524,59.9262 c 12.2939,32.9594 22.3524,60.10003 22.3524,60.3125 0,0.21246 -4.1581,0.3863 -9.2403,0.3863 l -9.2402,0 -6.2395,-17.8125 -6.2394,-17.8125 -23.4245,0 -23.4245,0 -6.4519,17.5 -6.452,17.5 -7.9271,0.37625 c -6.1089,0.28996 -7.7817,0.004 -7.2937,-1.25 z m 70.2683,-48.18875 c -0.5127,-1.20312 -4.7313,-13.71875 -9.3747,-27.8125 -9.3334,-28.32879 -8.5674,-27.65542 -13.2044,-11.60697 -1.1494,3.97758 -4.8271,14.50152 -8.1729,23.38651 -3.3457,8.885 -6.0832,16.61937 -6.0832,17.1875 0,0.56814 8.4976,1.03296 18.8837,1.03296 17.5063,0 18.8158,-0.15956 17.9515,-2.1875 z m 300.6648,6.5625 0,-43.125 6.875,0 6.875,0 0,43.125 0,43.125 -6.875,0 -6.875,0 0,-43.125 z m 211.25,0 0,-43.125 6.875,0 6.875,0 0,43.125 0,43.125 -6.875,0 -6.875,0 0,-43.125 z m 140,0 0,-43.125 6.875,0 6.875,0 0,5 c 0,5.5298 1.045,6.1796 4.2474,2.64105 1.1741,-1.29742 5.6207,-3.94439 9.8812,-5.88213 14.0778,-6.40272 30.7563,-4.40594 39.2493,4.69899 6.5852,7.05986 7.1499,10.48813 7.6331,46.35459 l 0.4506,33.4375 -7.5266,0 -7.5265,0 -0.3918,-30.9375 c -0.3546,-28.00379 -0.6288,-31.40399 -2.8917,-35.85684 -3.4646,-6.81749 -7.9841,-9.75963 -16.0149,-10.42561 -13.192,-1.09397 -23.3848,6.66803 -25.8541,19.68814 -0.6907,3.64267 -1.256,18.07751 -1.256,32.07742 l 0,25.45439 -6.875,0 -6.875,0 0,-43.125 z m -2126.2347,-28.4375 -0.015,-49.6875 78.4375,0.14009 c 73.2915,0.1309 77.5406,0.25495 64.7673,1.89085 -71.8633,9.20366 -117.1824,37.81218 -138.9778,87.73251 l -4.1965,9.61155 -0.015,-49.6875 z m 2053.083,-30.96704 c -1.3827,-1.52785 -1.8307,-2.96252 -1.1313,-3.62295 0.6369,-0.60137 7.588,-6.49433 15.447,-13.09546 15.2565,-12.81468 19.8046,-14.69909 22.6491,-9.38411 1.1562,2.16015 0.9192,3.13088 -1.3547,5.5514 -2.4971,2.65797 -31.5051,23.08066 -32.7834,23.08066 -0.2956,0 -1.5676,-1.13829 -2.8267,-2.52954 z m -277.5302,-5.53865 c -6.0959,-6.09586 -2.0004,-15.68181 6.7,-15.68181 5.3363,0 8.9819,3.80513 8.9819,9.375 0,8.75475 -9.4381,12.55051 -15.6819,6.30681 z m 211.25,0 c -6.0959,-6.09586 -2.0004,-15.68181 6.7,-15.68181 5.3363,0 8.9819,3.80513 8.9819,9.375 0,8.75475 -9.4381,12.55051 -15.6819,6.30681 z"
       style="fill:#006b94" />
  </g>
</svg>
